<?xml version="1.0" encoding="UTF-8" standalone="no"?>
<!-- Created with Inkscape (http://www.inkscape.org/) -->

<svg
   width="140.89761mm"
   height="140.89761mm"
   viewBox="0 0 140.89761 140.89761"
   version="1.1"
   id="svg1"
   xml:space="preserve"
   xmlns="http://www.w3.org/2000/svg"
   xmlns:svg="http://www.w3.org/2000/svg"><defs
     id="defs1" /><g
     id="layer1"
     transform="translate(-34.464149,-41.052887)"><circle
       style="fill:#ffffff;fill-opacity:1;stroke-width:0.1"
       id="path2"
       cx="104.91296"
       cy="111.50169"
       r="70.448807" /><path
       id="path1"
       style="fill:#000000"
       d="m 113.18121,52.386983 c -1.78192,0 -2.65944,0.433787 -5.93659,2.932121 -3.80342,2.899541 -4.68548,3.289151 -7.364412,3.253031 -1.802065,-0.0243 -2.647556,-0.215003 -5.688541,-1.282092 -4.471182,-1.568949 -6.364676,-1.705418 -8.258928,-0.595312 -2.278962,1.33556 -3.807605,3.94938 -4.699454,8.035685 -0.806857,3.696885 -1.337255,8.536314 -1.514637,13.825513 l -0.163297,4.869987 1.563729,-0.176217 c 0.859854,-0.09715 3.438446,-0.430439 5.730399,-0.740523 l 4.167188,-0.56379 v -1.113111 c 0,-0.612204 -0.07694,-2.023914 -0.171049,-3.137276 -0.15809,-1.870202 -0.216482,-2.024682 -0.764812,-2.024682 -0.534981,0 -4.603603,0.778693 -6.318994,1.209228 -0.598815,0.150295 -0.682645,0.08927 -0.682645,-0.497644 0,-0.61007 0.157156,-0.703949 1.785937,-1.067635 4.592993,-1.025559 9.740768,-2.062909 12.633854,-2.545581 6.998842,-1.167662 24.513032,-2.96798 24.919412,-2.561601 0.16282,0.162822 -0.003,0.591228 -0.493,1.271757 -0.24988,0.34718 -0.19,1.000989 0.28836,3.143478 0.4827,2.161916 0.53554,2.74768 0.26303,2.916101 -0.55271,0.341596 -9.86008,2.548956 -13.73301,3.257165 -6.35554,1.162185 -21.380122,3.411007 -26.722917,3.999756 -10.985708,1.21057 -17.015504,3.014581 -18.380273,5.498889 -0.494835,0.900751 -0.499052,0.995384 -0.08165,1.870687 0.852259,1.787204 3.928479,3.37683 8.540047,4.413684 1.455208,0.327185 2.731594,0.670831 2.83652,0.763261 0.104926,0.09244 0.01766,0.744176 -0.194304,1.44849 -0.74109,2.462458 -1.688343,8.016728 -2.374015,13.921628 -1.430116,12.31595 -3.095358,21.14783 -4.281392,22.70611 -2.479053,3.25714 -6.306784,6.68395 -11.729517,10.50065 -4.360551,3.06911 -6.078526,4.58915 -8.070308,7.1422 -0.04433,0.0568 -0.08832,0.11411 -0.132292,0.17105 a 70.448807,70.448807 0 0 0 3.776514,4.70101 c 0.06483,-2.80954 0.133843,-4.73925 0.193269,-4.73925 0.127612,0 0.248739,2.21135 0.344682,5.34593 a 70.448807,70.448807 0 0 0 9.667627,8.9364 c 0.01652,-0.71012 0.04272,-1.14287 0.07751,-1.1777 0.08895,-0.0891 0.25784,0.4949 0.478524,1.59835 a 70.448807,70.448807 0 0 0 7.662064,4.99453 c 0.317624,-0.48675 0.75863,-1.08748 1.244369,-1.68207 0.961526,-1.17701 1.690409,-2.29115 1.619539,-2.47582 -0.07089,-0.18474 -1.816022,-0.72925 -3.87935,-1.21078 -3.183056,-0.74285 -3.782521,-0.96226 -3.963582,-1.45056 -0.246122,-0.66375 -2.933154,-19.31119 -2.933154,-20.35534 0,-0.70528 1.008899,-1.69713 1.341003,-1.31827 0.09449,0.10779 0.380311,1.74367 0.635103,3.63544 0.6549,4.86248 2.663428,16.50186 2.886129,16.72456 0.10243,0.10243 2.164561,0.69063 4.582666,1.30741 2.418105,0.61678 4.488795,1.27064 4.60127,1.45263 0.282235,0.45667 0.03684,0.84321 -2.253093,3.5512 -1.099635,1.30039 -2.000328,2.5469 -2.001428,2.76986 -1e-4,0.0195 0.01203,0.05 0.03514,0.091 a 70.448807,70.448807 0 0 0 24.805204,7.58248 c -1.216257,-1.8122 -2.651414,-3.88871 -3.455086,-4.96404 -0.646575,-0.86512 -0.781037,-1.23599 -0.594279,-1.63607 0.303785,-0.65079 6.66566,-7.96124 6.927226,-7.96024 0.297104,0.001 2.706804,4.32982 2.706804,4.86224 0,0.25868 -0.46778,2.51494 -1.03973,5.01364 -0.48467,2.11743 -0.84882,3.75721 -1.10536,4.98471 a 70.448807,70.448807 0 0 0 4.39974,0.13746 70.448807,70.448807 0 0 0 8.06514,-0.46354 c -0.26485,-0.93441 -0.62511,-2.4022 -1.18598,-4.68653 l -1.25212,-5.10047 1.28468,-2.15387 c 0.70661,-1.1845 1.41918,-2.19829 1.58388,-2.25309 0.32206,-0.10719 6.79041,7.09477 6.92568,7.71116 0.0691,0.31476 -2.18758,3.76691 -3.79254,5.97999 a 70.448807,70.448807 0 0 0 23.65954,-8.50904 c -0.37112,-0.46222 -0.82686,-1.0109 -1.29501,-1.55443 -2.22696,-2.58549 -2.48896,-3.02114 -2.04019,-3.39359 0.18158,-0.15069 2.29283,-0.76611 4.69119,-1.36787 2.39836,-0.60176 4.44074,-1.17578 4.53874,-1.27538 0.16687,-0.1695 1.39548,-7.65942 2.62775,-16.01969 0.29737,-2.01751 0.63239,-3.91694 0.74466,-4.22042 0.20059,-0.54226 0.21611,-0.53939 0.90278,0.14728 0.53281,0.53279 0.66519,0.87512 0.55759,1.44177 -0.0776,0.40873 -0.77349,5.06798 -1.54667,10.35389 -0.92497,6.3236 -1.53153,9.726 -1.77354,9.94772 -0.20231,0.18534 -2.00505,0.72216 -4.00596,1.19269 -2.00091,0.47053 -3.63802,0.93828 -3.63802,1.03973 0,0.20694 0.69055,1.18181 1.9141,2.70629 a 70.448807,70.448807 0 0 0 16.37626,-13.95367 c 0.0426,-5.71705 0.13085,-7.49026 0.29662,-7.4352 0.18557,0.0616 0.33899,2.33187 0.45372,6.55102 a 70.448807,70.448807 0 0 0 4.29225,-5.70921 c -1.84072,-1.8165 -4.02971,-3.53265 -6.79649,-5.40122 -2.88288,-1.94698 -5.36343,-3.87184 -6.9081,-5.3604 l -2.40968,-2.32234 -1.57871,0.73019 c -1.47393,0.68198 -1.66455,0.87845 -2.88148,2.96984 -1.56263,2.68552 -8.09599,12.5966 -11.34298,17.20722 -3.39077,4.81478 -9.48891,12.96459 -9.7007,12.96459 -0.10013,0 -1.41439,-1.39863 -2.92075,-3.10834 -1.50636,-1.7097 -3.95924,-4.45028 -5.45083,-6.09007 -1.49159,-1.63978 -2.71198,-3.03628 -2.71198,-3.10368 0,-0.15922 15.51358,-10.43181 23.68021,-15.68018 3.4925,-2.24449 6.52346,-4.24759 6.73551,-4.45141 0.51315,-0.49326 0.17332,-0.79442 -1.35806,-1.20251 -1.46082,-0.38929 0.19114,-1.30467 -14.63787,8.11216 -12.14609,7.71311 -16.72707,10.56492 -17.64078,10.98124 -0.76353,0.34789 -1.61406,-0.14837 -18.655704,-10.88409 C 74.83646,137.54158 72.797221,136.24263 72.23021,135.78349 l -0.561722,-0.45527 1.069185,-5.68544 c 1.276938,-6.78941 1.602054,-8.93461 2.662887,-17.57619 0.445518,-3.6292 1.052669,-7.79105 1.349788,-9.24904 0.652689,-3.2028 2.1006,-7.762582 3.300574,-10.395751 0.79027,-1.734133 0.958541,-1.934516 1.62419,-1.934766 1.098358,-4.13e-4 10.659897,-0.727036 15.82384,-1.20251 6.475418,-0.596229 16.369858,-2.046692 22.489578,-3.296957 9.2887,-1.897687 8.56581,-1.822302 9.2475,-0.967383 1.2592,1.579185 3.91339,7.159625 5.05447,10.627259 1.44493,4.390978 2.77672,10.896968 3.68298,17.990628 0.37183,2.91042 0.74014,5.57474 0.81804,5.92057 0.11851,0.52603 0.0637,0.5961 -0.33486,0.42943 -2.96281,-1.23896 -7.27314,-2.40455 -10.45931,-2.82876 -1.7976,-0.23934 -2.34749,-0.41123 -2.46135,-0.76998 -0.0806,-0.25404 -0.44509,-0.9018 -0.80977,-1.43919 -0.36468,-0.53738 -0.62703,-1.01138 -0.58343,-1.05368 0.28254,-0.27398 5.99466,-0.71917 9.1674,-0.71417 2.54323,0.004 3.70862,-0.0818 3.53053,-0.25993 -0.67554,-0.67554 -7.1915,-0.93162 -11.31817,-0.44494 -2.17637,0.25668 -2.57709,0.23983 -3.14503,-0.13229 -0.85839,-0.56244 -1.01208,-0.53807 -0.66714,0.10645 0.32311,0.60373 0.47819,0.51822 -2.1854,1.20303 -1.93924,0.49858 -2.42107,0.83861 -2.04638,1.44487 0.20523,0.33207 0.56002,0.30272 2.5647,-0.21394 1.27952,-0.32977 2.47309,-0.59672 2.65203,-0.59272 0.27146,0.006 1.39423,1.80566 1.39423,2.235 0,2.9e-4 4e-5,7.5e-4 0,10e-4 -1.2e-4,5.8e-4 -7.8e-4,0.002 -10e-4,0.003 -0.0396,0.0722 -1.06563,0.16388 -2.31407,0.20515 -2.11323,0.0698 -2.31511,0.12262 -2.31511,0.60565 0,0.48275 0.22049,0.54077 2.51355,0.66146 2.39284,0.12594 2.51759,0.16214 2.60139,0.75448 0.0485,0.34223 0.0218,0.88732 -0.0594,1.21077 l -0.14728,0.58808 -1.79265,-0.46767 c -2.51629,-0.6562 -3.04101,-0.64099 -2.93574,0.0853 0.071,0.49019 0.41199,0.66364 2.13527,1.08779 1.29876,0.31967 2.05052,0.63623 2.05052,0.86299 0,0.19692 -0.35604,0.76327 -0.79117,1.25884 l -0.79116,0.90124 0.9896,0.16381 c 1.64135,0.27131 1.83787,0.20616 2.29495,-0.75706 0.27854,-0.58699 0.62642,-0.92604 0.95033,-0.92604 0.28105,0 2.15071,0.82761 4.15479,1.83865 4.10604,2.07143 5.224,2.54664 4.9506,2.10426 -0.31827,-0.51497 -4.7097,-3.25207 -6.94118,-4.32635 -2.11213,-1.01682 -2.17054,-1.07062 -2.17454,-1.98437 -0.002,-0.51657 -0.0756,-1.20736 -0.1633,-1.53479 -0.13414,-0.50051 -0.0546,-0.59532 0.49868,-0.59532 1.96534,0 10.34467,1.84639 11.71969,2.58227 0.42684,0.22844 0.62382,0.84834 1.0108,3.175 0.26447,1.59014 0.55924,3.00951 0.65474,3.15433 0.19653,0.29805 2.6839,0.96962 2.87682,0.7767 0.069,-0.069 -0.23987,-2.18773 -0.68678,-4.70824 -0.4469,-2.52052 -1.18048,-7.26209 -1.62987,-10.53631 -1.43129,-10.42819 -2.84236,-16.515472 -5.08755,-21.944394 -0.76355,-1.846279 -0.78468,-1.985903 -0.34261,-2.248958 4.63554,-2.758445 7.75999,-5.492931 8.78603,-7.688936 0.72302,-1.547448 0.75977,-2.011414 0.23822,-3.019971 -0.42561,-0.823033 -1.53534,-1.44097 -3.33054,-1.854667 -1.58676,-0.365661 -8.25801,-0.356403 -11.15798,0.0155 -1.28778,0.16513 -2.39933,0.242375 -2.47013,0.171565 -0.0708,-0.07081 -0.59281,-1.843008 -1.16014,-3.938261 -3.52146,-13.00539 -8.00427,-19.816878 -13.04209,-19.816878 z m -3.22565,8.511625 c 0.16665,-0.0014 0.75037,0.524095 1.36736,1.240235 0.66928,0.776829 1.67245,1.700016 2.22932,2.051554 1.16783,0.73722 3.5906,1.42627 5.0152,1.42627 1.67605,0 2.34119,0.500043 1.35496,1.018542 -1.39289,0.732302 -4.45424,0.511414 -6.35517,-0.45837 -2.06392,-1.052929 -4.43381,-4.477276 -3.64474,-5.266345 0.008,-0.0079 0.019,-0.01177 0.0331,-0.01189 z m -16.756081,2.338876 c 0.109142,-0.0012 0.197254,0.563479 0.195854,1.254703 -0.005,2.421208 -1.859805,5.203019 -4.30413,6.455937 -0.729253,0.373802 -1.797164,0.617373 -3.074231,0.700733 -2.477655,0.161735 -2.349517,-0.141298 0.645438,-1.524972 2.616883,-1.209003 4.072707,-2.588109 5.41259,-5.128369 0.509322,-0.965617 1.015338,-1.756832 1.124479,-1.758032 z m 29.567191,28.459245 c -2.08975,-9.05e-4 -3.18604,0.458867 -7.40317,3.103686 -2.94572,1.847443 -3.08604,1.904052 -4.66741,1.881022 l -1.63091,-0.02377 0.26148,0.748792 c 0.30892,0.886165 1.56492,2.008414 2.51509,2.246891 0.38296,0.09612 1.3061,-0.02932 2.13114,-0.289388 1.49955,-0.472689 1.89928,-0.34907 1.91048,0.591695 0.007,0.561003 0.82751,1.641413 1.56321,2.057233 0.43227,0.24434 1.13067,0.34836 1.8712,0.27906 1.68099,-0.15731 2.91972,-1.51023 2.91972,-3.188954 0,-1.008353 -0.13903,-1.316806 -0.94878,-2.103231 l -0.9493,-0.921908 1.13947,-0.581359 c 1.63502,-0.834122 3.95623,-0.959237 5.85184,-0.315743 1.85308,0.629059 1.96978,0.330656 0.47387,-1.210779 -1.58994,-1.638323 -2.99461,-2.272362 -5.03793,-2.273247 z m -33.236734,0.982885 c -0.104449,0.0035 -0.203073,0.01154 -0.296106,0.02429 -1.559383,0.213738 -2.970942,0.988574 -4.122229,2.262911 -1.437751,1.591419 -1.310582,1.940787 0.440283,1.209229 1.260719,-0.526762 3.713734,-0.505431 5.250842,0.04548 l 1.240751,0.444417 -0.67386,0.801502 c -0.578792,0.687854 -0.65659,0.987772 -0.54777,2.120284 0.101681,1.058233 0.29127,1.466673 0.958597,2.062923 1.723509,1.53996 4.58533,0.7258 5.32474,-1.51463 0.16652,-0.504571 0.338189,-0.917263 0.381889,-0.917263 0.0437,0 0.506973,0.178594 1.029394,0.396875 1.197247,0.500228 3.059843,0.498248 3.723803,-0.0041 0.68506,-0.518345 1.47285,-1.744941 1.47485,-2.297018 0.002,-0.387376 -0.11132,-0.410338 -0.81701,-0.164331 -1.10607,0.385577 -2.35037,-0.0033 -5.667352,-1.771984 -3.308617,-1.764225 -6.134091,-2.750322 -7.700822,-2.698544 z m 58.630534,4.722193 c -0.12773,0.0063 -0.10353,0.336981 0.14314,1.036112 0.5084,1.440954 0.50207,4.371471 -0.0124,5.829621 -0.22252,0.6307 -0.99275,1.95268 -1.71153,2.9378 -3.48199,4.77231 -3.5013,6.83864 -0.1111,11.88972 1.0677,1.59077 2.02123,3.3177 2.11873,3.83749 0.17535,0.93469 0.0192,3.19202 -0.32711,4.72891 -0.16755,0.7436 -0.14819,0.76867 0.30282,0.39687 0.26478,-0.21828 0.81959,-1.11125 1.233,-1.98437 1.2989,-2.74334 0.98254,-4.61322 -1.36477,-8.06979 -1.48277,-2.18347 -2.1053,-3.63045 -2.1053,-4.8948 0,-1.15271 0.72132,-2.96212 1.68414,-4.22558 0.33584,-0.4407 0.95208,-1.45635 1.36942,-2.25671 0.66064,-1.26696 0.75933,-1.74827 0.76533,-3.72122 0.006,-2.00419 -0.0855,-2.44505 -0.78755,-3.815268 -0.56185,-1.096694 -1.02179,-1.697382 -1.19682,-1.688785 z m -48.01516,3.918103 c -0.259687,-0.0118 -0.893191,0.41017 -1.80971,1.21543 -1.701188,1.49469 -3.545447,2.41564 -5.7304,2.86133 -1.784751,0.36406 -1.787433,0.63857 -0.0098,0.98547 2.728777,0.53253 5.800192,-1.07289 7.16287,-3.74396 0.28543,-0.55947 0.51883,-1.08154 0.51883,-1.16014 0,-0.10211 -0.0452,-0.15419 -0.13177,-0.15813 z m 12.96872,0 c -0.0903,-9.7e-4 -0.13695,0.0422 -0.13695,0.13075 0,1.10816 1.89554,3.2454 3.56981,4.02507 1.46092,0.68032 3.10806,0.79016 4.76457,0.3173 l 1.05833,-0.30231 -1.98437,-0.43925 c -2.29738,-0.50845 -3.26446,-0.97317 -5.33766,-2.56419 -0.99634,-0.76464 -1.66273,-1.16446 -1.93373,-1.16737 z m 39.37485,5.86735 c -0.38415,0.0183 -2.40035,2.33024 -2.89284,3.35121 -0.26086,0.54081 -0.52043,1.69777 -0.57723,2.5709 -0.10977,1.68791 0.0887,2.19076 2.60914,6.61459 0.80126,1.40634 0.90244,1.79885 0.88574,3.43958 -0.0142,1.3983 -0.19754,2.27346 -0.74776,3.57188 -0.40083,0.94588 -0.7878,1.9579 -0.8599,2.24895 -0.20869,0.8422 1.78325,-1.43666 2.68718,-3.07423 0.67385,-1.22075 0.78658,-1.70643 0.78858,-3.40806 0.003,-2.12548 -0.11093,-2.43435 -2.38952,-6.48229 -1.39456,-2.47746 -1.43881,-4.17624 -0.17828,-6.85229 0.47293,-1.00399 0.79654,-1.88857 0.71934,-1.96577 -0.0106,-0.0106 -0.0256,-0.0154 -0.0445,-0.0145 z m -45.35692,1.42006 c -4.52434,-0.0549 -5.04984,0.0876 -5.65702,1.53169 -0.46081,1.09594 -0.2936,1.42228 1.02733,2.0066 0.64434,0.28501 1.48123,0.97825 1.99574,1.65313 0.48745,0.63939 1.11949,1.37108 1.40457,1.62574 1.10751,0.98934 2.08143,0.49767 3.98477,-2.01176 0.41068,-0.54145 1.21435,-1.17122 1.78594,-1.39992 1.28842,-0.51553 1.37728,-1.29469 0.28732,-2.51457 l -0.75138,-0.8413 z m -14.380516,5.29632 c -0.124913,-0.004 -0.359835,0.0984 -0.67231,0.3173 -0.49942,0.34985 -1.162709,0.42542 -3.291272,0.37362 -3.909592,-0.0951 -11.226092,0.89099 -10.677901,1.43918 0.07221,0.0722 1.785357,-0.009 3.807003,-0.18035 3.485334,-0.29517 8.45429,-0.13994 8.23929,0.25735 -0.05165,0.0954 -0.384949,0.79093 -0.74104,1.54513 l -0.647506,1.37097 -2.38125,0.58343 c -3.945819,0.96671 -10.596922,3.64526 -11.108882,4.47363 -0.262738,0.42512 0.05277,0.34017 2.956925,-0.7953 2.364411,-0.92444 9.839179,-3.04894 10.005591,-2.84376 0.03248,0.04 0.123118,0.815 0.201538,1.72186 l 0.142627,1.64848 -1.417485,0.81132 c -2.622396,1.50038 -8.053295,5.7976 -8.056355,6.37429 1e-5,0.39812 0.25887,0.26756 1.806091,-0.91261 2.345944,-1.7894 4.52616,-3.20488 6.364986,-4.13204 l 1.688786,-0.85111 1.221631,1.18339 c 1.709567,1.65657 2.727433,2.10312 5.116483,2.24482 2.702173,0.16027 5.552896,-0.71187 8.877496,-2.71611 1.33489,-0.80475 2.56732,-1.46296 2.73885,-1.46296 0.17153,0 1.21663,0.51457 2.32234,1.1436 1.1057,0.62904 2.61578,1.39781 3.35587,1.70842 1.19246,0.50047 10.03349,3.49798 10.3172,3.49798 0.0612,0 0.1111,-0.41569 0.1111,-0.92346 0,-0.50776 0.22677,-1.51975 0.50385,-2.24896 0.27697,-0.72921 0.3993,-1.39036 0.27181,-1.46916 -0.12749,-0.0788 -2.13255,-0.25136 -4.45554,-0.38396 -4.69676,-0.2681 -5.31983,-0.4738 -9.37772,-3.09025 -2.50326,-1.61406 -2.93727,-1.66151 -4.54391,-0.49919 -4.77498,3.45442 -6.418707,4.1939 -9.388057,4.223 -1.703244,0.0167 -2.160962,-0.0828 -3.21014,-0.69764 -2.057335,-1.20568 -1.820523,-1.76776 1.09554,-2.60035 1.462816,-0.41767 1.863789,-0.70298 1.675867,-1.1927 -0.206529,-0.5382 -0.852987,-0.47242 -3.017904,0.30851 -2.147618,0.77469 -2.350995,0.68811 -2.357995,-1.0051 -0.0037,-0.9007 0.06561,-0.99211 0.855761,-1.12603 0.472944,-0.0802 1.693334,-0.17473 2.71198,-0.21033 1.732123,-0.0605 1.85805,-0.10575 1.942,-0.6997 l 0.0894,-0.6351 -2.669088,0.14728 c -1.468196,0.0809 -2.669604,0.0729 -2.669604,-0.0176 0,-0.0905 0.194998,-0.67478 0.433049,-1.29811 0.510133,-1.33576 0.618634,-1.35334 3.756876,-0.601 2.331342,0.5589 2.689242,0.52523 2.689242,-0.25476 0,-0.4646 -0.898264,-0.7663 -4.455026,-1.49552 -0.512839,-0.10514 -0.562941,-0.19358 -0.293005,-0.51883 0.272188,-0.32797 0.293412,-0.5071 0.132808,-0.5116 z m 21.714436,1.23093 c -0.0322,-8e-5 -0.0644,0.003 -0.0961,0.009 -0.57353,0.11045 -0.77506,1.00071 -0.29404,1.29811 0.47769,0.29534 1.13945,-0.38562 0.92295,-0.94981 -0.0807,-0.21028 -0.30762,-0.3565 -0.53279,-0.35709 z m -14.27406,1.57924 c -0.323739,-0.0155 -0.443903,0.10965 -0.443903,0.43408 0,0.27691 0.08347,0.5868 0.185518,0.68885 0.350975,0.35098 1.005105,0.0272 1.005105,-0.49765 0,-0.34357 -0.20613,-0.555 -0.59531,-0.6103 -0.0548,-0.008 -0.10516,-0.0128 -0.15141,-0.015 z m 16.78812,1.55494 c -0.63332,0 -0.934,0.40002 -0.71985,0.95808 0.22632,0.58979 1.06867,0.32626 1.16737,-0.36535 0.0635,-0.44529 -0.0478,-0.59273 -0.44752,-0.59273 z m -19.253089,1.61696 c -0.287406,0.006 -0.360184,0.16351 -0.360184,0.61339 0,0.5537 0.12636,0.68007 0.680062,0.68007 0.553703,0 0.664172,-0.11048 0.595312,-0.59532 -0.05434,-0.38258 -0.297485,-0.62576 -0.680062,-0.68006 -0.09091,-0.0129 -0.168803,-0.0195 -0.235128,-0.0181 z m 29.098479,6.58719 c -0.7293,-0.002 -0.9098,0.14916 -1.40921,1.18081 -0.61995,1.28065 -0.83317,3.38517 -0.38809,3.83025 0.15198,0.15198 3.90214,1.51488 8.33386,3.02876 4.43173,1.51387 8.08236,2.73039 8.11216,2.70319 l 5.2e-4,-5.1e-4 v -5.2e-4 c 0.024,-0.0411 -0.11775,-0.52959 -0.31988,-1.09709 -0.20534,-0.57652 -0.37579,-1.40519 -0.37879,-1.84175 -0.008,-1.04024 0.79325,-2.74681 1.66709,-3.55172 0.383,-0.35279 0.69659,-0.71922 0.69659,-0.81442 0,-0.218 -1.25423,-0.51069 -9.12812,-2.12959 -3.4925,-0.71807 -6.72616,-1.30641 -7.18613,-1.30741 z m 18.44487,4.76043 c -0.94761,0 -2.24941,1.0533 -2.62154,2.1208 -0.24277,0.69642 -0.19556,0.86744 0.38705,1.40767 0.58993,0.54701 0.61752,0.65299 0.25115,0.95705 -0.57378,0.47619 -0.5139,0.96924 0.17622,1.45262 0.71151,0.49835 0.59699,0.49652 1.51618,0.0212 2.41084,-1.24669 2.64086,-5.95933 0.29094,-5.95933 z m -26.03097,1.96319 c -0.14298,-0.002 -0.72489,0.21556 -1.37872,0.51832 -5.52001,2.55601 -11.17489,3.21442 -16.34371,1.90324 -1.39278,-0.3533 -3.104859,-0.90166 -3.804418,-1.21853 -2.942205,-1.3327 -2.991549,-1.34858 -2.991549,-0.95808 0,0.53515 1.999255,2.71254 3.33313,3.63027 1.368976,0.94188 2.781207,1.48202 5.133537,1.96267 3.7027,0.75657 8.27456,0.33939 11.25874,-1.02681 1.57103,-0.71924 3.91381,-2.76151 4.52634,-3.94602 0.21627,-0.41829 0.34993,-0.80462 0.29663,-0.85782 -0.005,-0.005 -0.0152,-0.007 -0.03,-0.007 z m -49.666216,4.51032 c 0.526504,0.006 2.070378,1.00362 8.295618,5.08806 3.726647,2.44509 10.69766,6.97847 15.491044,10.07432 4.793384,3.09585 8.861164,5.8047 9.039244,6.01927 0.38443,0.46321 0.0368,0.91592 -4.671035,6.08904 -1.726653,1.89731 -3.776379,4.18926 -4.554761,5.09323 -0.778383,0.90396 -1.516599,1.64382 -1.640727,1.64382 -0.528382,0 -9.605303,-12.46853 -14.158825,-19.44946 -3.975621,-6.09497 -8.317188,-13.20303 -8.313188,-13.61002 0.0022,-0.22565 0.105461,-0.57021 0.229443,-0.76584 0.06832,-0.10781 0.135766,-0.1841 0.283187,-0.18242 z" /></g></svg>
